<?xml version="1.0" encoding="utf-8"?>
<!-- Generator: Adobe Illustrator 27.2.0, SVG Export Plug-In . SVG Version: 6.00 Build 0)  -->
<svg version="1.1" id="Layer_1" xmlns="http://www.w3.org/2000/svg" xmlns:xlink="http://www.w3.org/1999/xlink" x="0px" y="0px"
	 viewBox="0 0 1080 2560" style="enable-background:new 0 0 1080 2560;" xml:space="preserve">
<style type="text/css">
	.st0{fill:#0067F4;}
	.st1{fill:#D8F1FA;}
	.st2{fill:#9DDEF5;}
	.st3{fill:#0059F4;}
	.st4{fill:#D4FAFF;}
</style>
<rect x="-577" y="-271.5" class="st0" width="2048.4" height="1332.1"/>
<path class="st1" d="M0,518.5l36,9.4c36,9.4,108,28.1,180,22.5s144-35.6,216-26c72,9.6,144,58.5,216,66c72,7.4,146.3-20.8,216-47.7
	c73.9-28.5,113.3-41,165.4-33.6l50.6,9.5v383.9h-36c-36,0-108,0-180,0s-144,0-216,0s-144,0-216,0s-144,0-216,0s-144,0-180,0H0V518.5
	z"/>
<path class="st2" d="M306,676.7l36,9.4c36,9.4,108,28.1,180,22.5s144-35.6,216-26c72,9.6,144,58.5,216,66
	c72,7.4,146.3-20.8,216-47.7c73.9-28.5,113.3-41,165.4-33.6l50.6,9.5v383.9h-36c-36,0-108,0-180,0s-144,0-216,0s-144,0-216,0
	s-144,0-216,0s-144,0-180,0h-36V676.7z"/>
<path class="st2" d="M-774,676.7l36,9.4c36,9.4,108,28.1,180,22.5s144-35.6,216-26c72,9.6,144,58.5,216,66
	c72,7.4,146.3-20.8,216-47.7c73.9-28.5,113.3-41,165.4-33.6l50.6,9.5v383.9h-36c-36,0-108,0-180,0s-144,0-216,0s-144,0-216,0
	s-144,0-216,0s-144,0-180,0h-36V676.7z"/>
<path class="st3" d="M1080,864.8v1714.9H0V864.8c46.8,17.7,93.6,40.1,140.4,44.9c72,7.4,146.3-20.8,216-47.7
	c73.8-28.5,113.3-41,165.4-33.6l50.6,9.5l36,9.4c36,9.4,108,28.1,180,22.5c72-5.6,144-35.6,216-26
	C1029.6,847.1,1054.8,855.3,1080,864.8z"/>
<path class="st4" d="M1028.8,256.3c0,39.9-32.4,72.3-72.2,72.3c-25.9,0-48.6-13.6-61.4-34.1c-11.9,7-25.5,11.4-40.1,12.3
	c-6.9,9.1-17.9,15-30.2,15c-10.6,0-20.1-4.3-27-11.3c-9.4,11.1-23.4,18.1-39.1,18.1c-15.3,0-29.1-6.7-38.5-17.4
	c-9.4,10.7-23.2,17.4-38.5,17.4c-11,0-21.2-3.5-29.6-9.4c-7,1.7-14.2,2.6-21.7,2.6c-50,0-90.5-40.5-90.5-90.5s40.5-90.5,90.5-90.5
	c19.1,0,36.9,5.9,51.5,16.1c2.9-47.4,42.2-84.9,90.3-84.9c37,0,68.9,22.3,82.9,54.2c37.2,2.4,68.3,27.2,79.8,61.1
	c6.8-2.1,14.1-3.3,21.6-3.3C996.4,184,1028.8,216.4,1028.8,256.3z"/>
<path class="st4" d="M135.8,203.7c0,22.3,17,40.4,38,40.4c13.6,0,25.5-7.6,32.2-19c6.2,3.9,13.4,6.4,21.1,6.9
	c3.6,5.1,9.4,8.4,15.9,8.4c5.6,0,10.6-2.4,14.2-6.3c4.9,6.2,12.3,10.1,20.5,10.1c8.1,0,15.3-3.8,20.2-9.7c4.9,6,12.2,9.7,20.2,9.7
	c5.8,0,11.1-1.9,15.5-5.2c3.7,1,7.5,1.5,11.4,1.5c26.2,0,47.5-22.6,47.5-50.5s-21.3-50.5-47.5-50.5c-10,0-19.4,3.3-27,9
	c-1.5-26.5-22.2-47.4-47.4-47.4c-19.5,0-36.2,12.5-43.5,30.3c-19.5,1.3-35.9,15.2-41.9,34.1c-3.6-1.2-7.4-1.8-11.4-1.8
	C152.8,163.4,135.8,181.4,135.8,203.7z"/>
</svg>
