<?xml version="1.0" encoding="utf-8"?>
<!-- Generator: Adobe Illustrator 27.2.0, SVG Export Plug-In . SVG Version: 6.00 Build 0)  -->
<svg version="1.1" id="visual" xmlns="http://www.w3.org/2000/svg" xmlns:xlink="http://www.w3.org/1999/xlink" x="0px" y="0px"
	 viewBox="0 0 1920 1080" style="enable-background:new 0 0 1920 1080;" xml:space="preserve">
<style type="text/css">
	.st0{fill:#14C5ED;}
	.st1{fill:#6CD1F1;}
	.st2{fill:#ACE3F6;}
</style>
<path class="st0" d="M0,460.8l64,17.5c64,17.5,192,52.5,320,42s256-66.5,384-48.7c128,17.9,256,109.5,384,123.4
	c128,13.8,260-38.9,384-89.2c131.3-53.3,201.4-76.7,294.1-62.8l89.9,17.8v718h-64c-64,0-192,0-320,0s-256,0-384,0s-256,0-384,0
	s-256,0-384,0s-256,0-320,0H0V460.8z"/>
<image style="overflow:visible;" width="512" height="512" xlink:href="C:\Users\rodrh\Downloads\doctor.png"  transform="matrix(0.9447 0 0 0.9447 1083 219.4)">
</image>
<g>
	<path class="st1" d="M583.2,615.7l64,17.5c64,17.5,192,52.5,320,42s256-66.5,384-48.7c128,17.9,256,109.5,384,123.4
		c128,13.8,260-38.9,384-89.2c131.3-53.3,201.4-76.7,294.1-62.8l89.9,17.8v718h-64c-64,0-192,0-320,0s-256,0-384,0s-256,0-384,0
		s-256,0-384,0s-256,0-320,0h-64V615.7z"/>
	<path class="st1" d="M-1336.8,615.7l64,17.5c64,17.5,192,52.5,320,42s256-66.5,384-48.7c128,17.9,256,109.5,384,123.4
		c128,13.8,260-38.9,384-89.2C330.5,607.4,400.6,584,493.3,598l89.9,17.8v718h-64c-64,0-192,0-320,0s-256,0-384,0s-256,0-384,0
		s-256,0-384,0s-256,0-320,0h-64V615.7z"/>
</g>
<g>
	<path class="st2" d="M1204.2,826.7l64,14.3c64,14.3,192,42.9,320,34.3c128-8.6,256-54.4,384-39.8c128,14.6,256,89.5,384,100.9
		c128,11.3,260-31.8,384-72.9c131.3-43.6,201.4-62.7,294.1-51.3l89.9,14.5v587.2h-64c-64,0-192,0-320,0s-256,0-384,0s-256,0-384,0
		s-256,0-384,0s-256,0-320,0h-64V826.7z"/>
	<path class="st2" d="M-715.8,826.7l64,14.3c64,14.3,192,42.9,320,34.3c128-8.6,256-54.4,384-39.8c128,14.6,256,89.5,384,100.9
		c128,11.3,260-31.8,384-72.9c131.3-43.6,201.4-62.7,294.1-51.3l89.9,14.5v587.2h-64c-64,0-192,0-320,0s-256,0-384,0s-256,0-384,0
		s-256,0-384,0s-256,0-320,0h-64V826.7z"/>
</g>
</svg>
