<svg id="visual" viewBox="0 0 1920 1080" width="1920" height="1080" xmlns="http://www.w3.org/2000/svg" xmlns:xlink="http://www.w3.org/1999/xlink" version="1.1"><rect x="0" y="0" width="1920" height="1080" fill="#ffffff"></rect><path d="M0 363L64 380.5C128 398 256 433 384 422.5C512 412 640 356 768 373.8C896 391.7 1024 483.3 1152 497.2C1280 511 1408 447 1536 408C1664 369 1792 355 1856 348L1920 341L1920 1081L1856 1081C1792 1081 1664 1081 1536 1081C1408 1081 1280 1081 1152 1081C1024 1081 896 1081 768 1081C640 1081 512 1081 384 1081C256 1081 128 1081 64 1081L0 1081Z" fill="#feb4d1"></path><path d="M0 529L64 525.7C128 522.3 256 515.7 384 522.8C512 530 640 551 768 540.8C896 530.7 1024 489.3 1152 510.5C1280 531.7 1408 615.3 1536 645.8C1664 676.3 1792 653.7 1856 642.3L1920 631L1920 1081L1856 1081C1792 1081 1664 1081 1536 1081C1408 1081 1280 1081 1152 1081C1024 1081 896 1081 768 1081C640 1081 512 1081 384 1081C256 1081 128 1081 64 1081L0 1081Z" fill="#f194b7"></path><path d="M0 708L64 719.3C128 730.7 256 753.3 384 753.5C512 753.7 640 731.3 768 727.8C896 724.3 1024 739.7 1152 753.8C1280 768 1408 781 1536 748.5C1664 716 1792 638 1856 599L1920 560L1920 1081L1856 1081C1792 1081 1664 1081 1536 1081C1408 1081 1280 1081 1152 1081C1024 1081 896 1081 768 1081C640 1081 512 1081 384 1081C256 1081 128 1081 64 1081L0 1081Z" fill="#e4739d"></path><path d="M0 818L64 831.7C128 845.3 256 872.7 384 880.8C512 889 640 878 768 874.8C896 871.7 1024 876.3 1152 858.8C1280 841.3 1408 801.7 1536 796.8C1664 792 1792 822 1856 837L1920 852L1920 1081L1856 1081C1792 1081 1664 1081 1536 1081C1408 1081 1280 1081 1152 1081C1024 1081 896 1081 768 1081C640 1081 512 1081 384 1081C256 1081 128 1081 64 1081L0 1081Z" fill="#d65083"></path><path d="M0 952L64 942.8C128 933.7 256 915.3 384 923C512 930.7 640 964.3 768 978.8C896 993.3 1024 988.7 1152 970.2C1280 951.7 1408 919.3 1536 925.3C1664 931.3 1792 975.7 1856 997.8L1920 1020L1920 1081L1856 1081C1792 1081 1664 1081 1536 1081C1408 1081 1280 1081 1152 1081C1024 1081 896 1081 768 1081C640 1081 512 1081 384 1081C256 1081 128 1081 64 1081L0 1081Z" fill="#c62368"></path></svg>